<svg xmlns="http://www.w3.org/2000/svg" width="311.129" height="39.168" viewBox="0 0 82.319618 10.363292"><g clip-path="url(#clipPath5624)" transform="translate(-44.12 -13.635) scale(.35278)"><path d="M137.516 56.24c-.89 0-1.778-.715-1.778-2.147V38.65l-10.672.048v16.74c0 7.916 5.96 11.892 11.922 11.892h9.18V56.24zm23.54-.526c0 2.863-3.56 2.863-3.56 0v-11.33h-10.14v11.74c0 15.828 23.84 15.828 23.84 0v-11.74h-10.14v11.33zm25.41-17.016v4.964l-2.197.07c-6.657.06-11.996 5.474-11.996 12.145 0 6.71 5.398 12.15 12.105 12.15 6.706 0 12.145-5.44 12.145-12.15v-17.18h-10.06zm-2.197 15.1h2.195v2.08a2.07 2.07 0 0 1-2.086 2.086c-1.146 0-2.045-.94-2.045-2.087 0-1.108.842-2.02 1.934-2.08zm27.107 1.916c0 2.863-3.558 2.863-3.558 0v-11.33h-10.144v11.74c0 15.828 23.843 15.828 23.843 0v-11.74h-10.143zm34.284 0c0-2.536 3.19-2.495 3.19-.04V67.33h10.062V55.265c0-8.385-6.053-11.617-11.778-11.576-2.25.04-4.744.86-6.34 2.577-1.84-1.84-4.17-2.577-6.46-2.577-5.686 0-11.656 2.986-11.656 11.576V67.33h10.06V55.673c0-2.454 3.15-2.495 3.15.04V67.33h9.773z" fill="#e53"/></g><g clip-path="url(#clipPath5636)" transform="translate(-44.12 -13.635) scale(.35278)"><g fill="#f79122"><path d="M268.408 67.328h12.018c18.34 0 18.34-28.627 0-28.627h-12.018zm10.51-11.083V49.66h1.71c3.612 0 3.653 6.585 0 6.585z"/><path d="M306.734 43.69c-4.56-.065-8.975 2.847-10.75 7.08-1.857 4.17-1.006 9.382 2.103 12.715 2.33 2.613 5.85 4.016 9.32 3.84h1.315v.003h9.738c-.015-4.194.03-8.388-.024-12.58-.235-4.68-3.536-8.988-7.95-10.438a11.54 11.54 0 0 0-3.752-.62zm-.047 9.783c.856.006 1.72.542 1.946 1.437.13.87.098 1.754.085 2.636-.79.005-1.58.006-2.368-.03-1.54-.225-2.21-2.38-1.056-3.443.367-.416.878-.604 1.393-.6zm23.72-9.088c-6.37 0-10.832 4.213-10.832 10.633v12.31h9.98V56.073c0-1.258.785-2.077 2.06-2.077h2.403v-9.61zm16.273-.695c-4.56-.065-8.974 2.846-10.75 7.08-1.87 4.197-.993 9.447 2.16 12.78 2.342 2.592 5.86 3.964 9.32 3.777h10.995l-8.688-9.784h8.696v-2.026c0-3.996-2.103-7.958-5.524-10.043a11.64 11.64 0 0 0-6.21-1.784zm0 9.774c1.486-.06 2.57 1.78 1.76 3.057-.707 1.422-2.94 1.264-3.577-.132-.61-1.26.38-2.964 1.817-2.924z"/></g></g></svg>